<?xml version="1.0" encoding="UTF-8"?><svg id="_レイヤー_2" xmlns="http://www.w3.org/2000/svg" viewBox="0 0 57.29 25.52"><defs><style>.cls-1{fill:#e2e2e2;}</style></defs><g id="_レイヤー_1-2"><g><path id="_パス_15" class="cls-1" d="M22.23,3.04c.25-1.04-.35-2.09-1.37-2.41-.85-.29-1.73-.47-2.63-.53-.88-.09-1.77-.12-2.65-.08-1.77-.03-3.53,.31-5.15,1.01-.93,.53-1.26,1.71-.73,2.65,.5,.88,1.6,1.23,2.52,.79-.03,.02-.03,.02,.11-.03,.14-.05,.28-.1,.42-.13,.3-.08,.61-.15,.92-.2,.09-.02,.17-.03,.26-.04,.17-.02,.35-.04,.52-.05,.41-.03,.83-.06,1.24-.08,.83-.03,1.66,0,2.48,.08,.1,0,.18,.03,.28,.03h-.06c.16,.03,.31,.05,.47,.09,.33,.07,.65,.17,.96,.29,1.04,.28,2.12-.33,2.41-1.37h0Z"/><path id="_パス_16" class="cls-1" d="M47.67,3.71c.53-.94,.22-2.12-.71-2.68C45.34,.33,43.59-.02,41.82,.02c-.89-.04-1.77-.01-2.66,.08-.9,.06-1.78,.24-2.63,.53-1.02,.31-1.63,1.37-1.37,2.41,.3,1.03,1.37,1.64,2.41,1.36,.31-.12,.63-.21,.96-.29,.17-.03,.34-.07,.5-.1h.03s.09-.02,.1-.02c.84-.09,1.69-.11,2.53-.09,.41,0,.83,.03,1.24,.08l.5,.05c.07,0,.15,.03,.22,.03,.33,.05,.65,.12,.97,.21,.13,.03,.26,.08,.38,.12,.07,.02,.14,.04,.2,.08,0,0-.04-.03-.08-.04,.91,.44,2.01,.12,2.53-.75v.02Z"/><path class="cls-1" d="M56.3,7.78c-3.67-.57-7.38-.87-11.1-.9-10.67,0-13.89,1.98-16.55,1.98s-5.89-1.98-16.56-1.98c-3.72,.03-7.43,.33-11.1,.9C.4,7.92-.01,8.45,0,9.06v2.53c0,.34,.18,.67,.46,.86,.77,.61,1.29,1.47,1.49,2.43,.36,1.87,2.04,7.2,4.53,8.89s13.33,3.02,16.27-.27c2.06-2.52,3.55-5.47,4.36-8.62,0-.85,.69-1.53,1.53-1.53s1.53,.69,1.53,1.53c.81,3.16,2.3,6.1,4.35,8.62,2.93,3.29,13.78,1.96,16.27,.27,2.49-1.69,4.18-7.02,4.53-8.89,.2-.96,.73-1.82,1.49-2.43,.29-.19,.46-.51,.46-.86v-2.53c.01-.61-.4-1.14-.99-1.28Zm-30.98,7.12h0c-.44,2.95-1.82,5.68-3.95,7.77-.63,.63-2.44,1.37-5.86,1.37-3.66,0-7.14-.83-8.02-1.43-1.72-1.17-4.49-7.45-3.58-10.88,.63-2.05,5.97-2.26,8.32-2.26,4.02-.11,8.03,.41,11.89,1.54,.47,.15,1.67,.74,1.21,3.89Zm24.47,7.71c-.88,.6-4.36,1.43-8.02,1.43-3.42,0-5.23-.74-5.86-1.37-2.12-2.09-3.51-4.82-3.95-7.77h0c-.47-3.15,.74-3.74,1.21-3.89,3.86-1.13,7.87-1.65,11.89-1.54,2.34,0,7.68,.21,8.32,2.26,.9,3.43-1.86,9.72-3.58,10.88Z"/><path id="_パス_17" class="cls-1" d="M28.98,22.24c-.81,.02-1.45,.69-1.43,1.5,.02,.78,.65,1.41,1.43,1.43,.81-.02,1.45-.69,1.43-1.5-.02-.78-.65-1.41-1.43-1.43Z"/></g></g></svg>